<mxfile host="65bd71144e">
    <diagram id="vAeUh7GE5oxJhPm7hiSd" name="Page-1">
        <mxGraphModel dx="557" dy="626" grid="1" gridSize="10" guides="1" tooltips="1" connect="1" arrows="1" fold="1" page="1" pageScale="1" pageWidth="850" pageHeight="1100" background="none" math="0" shadow="0">
            <root>
                <mxCell id="0"/>
                <mxCell id="1" parent="0"/>
                <mxCell id="9" value="" style="whiteSpace=wrap;html=1;labelBorderColor=none;strokeColor=default;fontFamily=Verdana;fontSize=24;fontColor=#000000;fillColor=none;opacity=70;strokeWidth=3;movable=1;resizable=1;rotatable=1;deletable=1;editable=1;connectable=1;" parent="1" vertex="1">
                    <mxGeometry x="115.99" y="280" width="620" height="670" as="geometry"/>
                </mxCell>
                <mxCell id="2" value="" style="whiteSpace=wrap;html=1;fillColor=#758F6C;movable=0;resizable=0;rotatable=0;deletable=0;editable=0;connectable=0;opacity=70;" parent="1" vertex="1">
                    <mxGeometry width="850" height="200" as="geometry"/>
                </mxCell>
                <mxCell id="3" value="&lt;font face=&quot;Verdana&quot; style=&quot;font-size: 36px;&quot;&gt;My&lt;br&gt;Trails&lt;/font&gt;" style="text;strokeColor=none;align=left;fillColor=none;html=1;verticalAlign=middle;whiteSpace=wrap;rounded=0;fontColor=#999900;fontStyle=1;labelBorderColor=none;" parent="1" vertex="1">
                    <mxGeometry x="20" y="20" width="210" height="100" as="geometry"/>
                </mxCell>
                <mxCell id="6" value="&lt;div style=&quot;&quot;&gt;&lt;font face=&quot;Verdana&quot;&gt;&lt;span style=&quot;font-size: 24px;&quot;&gt;Logout&lt;/span&gt;&lt;/font&gt;&lt;/div&gt;" style="text;strokeColor=none;align=right;fillColor=none;html=1;verticalAlign=middle;whiteSpace=wrap;rounded=0;fontColor=#999900;fontStyle=1;labelBorderColor=none;" parent="1" vertex="1">
                    <mxGeometry x="690" y="10" width="150" height="60" as="geometry"/>
                </mxCell>
                <mxCell id="7" value="&lt;div style=&quot;&quot;&gt;&lt;font face=&quot;Verdana&quot;&gt;&lt;span style=&quot;font-size: 24px;&quot;&gt;Parks&lt;span style=&quot;white-space: pre;&quot;&gt;&#9;&lt;/span&gt;Trails&lt;span style=&quot;white-space: pre;&quot;&gt;&#9;&lt;/span&gt;My Reviews&lt;/span&gt;&lt;/font&gt;&lt;/div&gt;" style="text;strokeColor=none;align=center;fillColor=none;html=1;verticalAlign=middle;whiteSpace=wrap;rounded=0;fontColor=#999900;fontStyle=1;labelBorderColor=none;strokeOpacity=100;" parent="1" vertex="1">
                    <mxGeometry x="209" y="120" width="433" height="60" as="geometry"/>
                </mxCell>
                <mxCell id="8" value="&lt;font style=&quot;font-size: 36px;&quot;&gt;Your next adventure awaits!&lt;/font&gt;" style="text;strokeColor=none;align=center;fillColor=none;html=1;verticalAlign=middle;whiteSpace=wrap;rounded=0;labelBorderColor=none;fontFamily=Verdana;fontSize=24;fontColor=#000000;opacity=70;" parent="1" vertex="1">
                    <mxGeometry x="145.99" y="286.42" width="560" height="120" as="geometry"/>
                </mxCell>
                <mxCell id="10" value="" style="shape=stencil(lVrJblw3EPyauRLcl7Pj/IcBy5EQRTJkZfv7FDMgZ1h8rwTfpBkW2eyN1d1zCZ9+PH75/nDx9sf72+vvD38/fX1/vIRfLt4/vTw+vD29469L+HwJn769vj389vb658vX6//fv/SV/a8/Xv/qO/xzxTkTYgd5++/1A2us//+DX6/Ln59e7pYH4x0tD/V8eTQ50fIsdk+mFVpe3fnyakJYljvjyvlyZ41ztD4K4Z0zhddXIb0Lxq7yeJODWB+NW9eHceDx+jR0PdYnY7NYn03wy/psvFpfjG/L+mKSkr8av5qrmqb02Ywne8F72jmgO9fqnDBJSwIAb84rIJioTvAbIOoTEACrR3ctWwmoq5Kg5qhOiCatVoOeiwIk4+3qdnbc6gzQCAA1qBOyyasdupDC0nAc8jxsIe9QTFvtAF/KynD4eo3NYGXw+8a+FJxJAoD9KBqCN0WEA/YjtQYEuMqlyBcboEUBiMavag3JFGEHfJ3pBJhSAYpxdOliinDvUE2lHAZvFWqN1sTV0qGZKk6IUOsqEraQJ4SRVCbAScPFOK44AUjcIoBiGmaagGCS8NZY2NI4MyqR6iZSMlW4RoK3kkgzmx8D3PCcCWjj+ToGIJOuJ2ALp06IbIfkR2o7BiROxjizqRPyBkj6hLKJVOQTmupgCBMAy6gTGuelbGW6z5PiTIAfpjwGeGPXFyhHYwVtyNuTlZN0b+xHIZqRFhQgDVY3AdUkdYf5GkxAk0wPApQ1zRRNDbEfPYoFeUQAsB+lyuJliPb9IgOUa5TIj2IJkv4UJPfIgCrsUHYCB1MqkUDYSKQ0OPIx47bDc+4ATSTjOpU4AVmSxApnXiMOQqq8VBHyJFKT3lozPyi4VVSX3uqM6uQLVNt4DSYgGCeSQLPs3lBDFAHUIMB6aahB1RoNLxpx9SwJVotDiRNQpS+1WYxMQJOZr2XjVve+qeEMQFwDamhKpMKJrIVRch0DtooGasjCNQAIBEiDyZ7doayugS2ioD/90ms84FZVGa5wVdnVoHwJVZ5jgBUhiq8biZRHkXOmpWQ3gDJcY74EgGLGbbra3R28Mlxj+gOAtHTj3gRuZZUdGqeZVj86oVI8IJEp10CaSQxQBXvfLzBAscouMRXg1g7TnCGc5yMUh+tq32XSQe23E5LSK1xnO8Eqd82jILmznCoVDxJTlbSyB9gWo6qgxtecZ4ok3z1JkJayzpWV2clHMVo3d52p6sz7wpZnPvDvvMVoVGptTGd6qhJ3uPPm+3Ssel4/jcCDkLfUJF/etD1Cs5F3BnAkUtT5OG6JI4xAPwaEwZ0nwA9+fQZwdAenYw77rbYGe5DeZDmqwU8UdQWAiGUto5I6Y3GkVnAspVYIQK4BFpeFlupGBsATg2KiaZRVE+ClWiEAlUHguioisF+lEqINRR8DtgFCLypUVdP4TSlVtsnKptZSdN2UmfaVLFtMJW6lnG7qotKjTjzKIPUGobokjlV0nxn1q6sMUJ1sVMiVLh1kOYoanFp9uJUXlkaVTw8vSmCnqvw4CNJ9lS/Umj3HdK7S0tlxVZPnU3zWbaFyFLdyIs2kxjOjHGQZlLaH9ybkWROLCFDWFCsldu+ktdQbcQTIso+QAnOB3ppTJ3hOAjhTNhMd8xlsoQYEyfJUBFtkAejdzPXSUfPKWLikjrO4OwZs47WoWxtxm+zEJH2pd7JXLd22OAZ4frKwhRq43lrpd61vlTVC42ZidDKmQxnU+a59r2qOkLjgDZoJ9KkIjYKqrMH7HMcyQJVywY3x2ASUoYZjgN0mu1m2mPrklKZTSZZyfcJGJwRT9QyPvBVq8MLSfuMauJVq6vrIL1Af0qk5ZOQ3DkKqMYqfqXcC9BilD+BXw90GvmcAHuHbkRaOAY4fFNe0SJafLFeke2O/uk2cVR/B1Q2QZPexC0AiBWk4CEBZw3nZV3NbJ9vpH4K4yCI1Oc2CwFT5VTkTwXpKlHkMb4/Xb0PIJD0V16NYiDL+2zanle2uwiQ9yGSRuB0dZH8vcor3klN5Jjx+NOQPl291m5epdAsXL8f8loeUXvKQbWrq5FUte42T9d38KdVteRBW3ToLumS2PAe08iG23M+3owlwspzel/nByXJ6LKycwVgufK0sxR1zOc2Qf/I3bR8uxx+3n899e3p+vv767v57/rkdPrr+VC98/g8=);lineShape=1;labelBorderColor=none;strokeColor=default;strokeWidth=3;fontFamily=Verdana;fontSize=24;fontColor=#000000;fillColor=none;opacity=70;" parent="1" vertex="1">
                    <mxGeometry x="113.99504047996923" y="559.6628795019799" width="382.48250817847384" height="383.6638688611645" as="geometry"/>
                </mxCell>
                <mxCell id="11" value="" style="shape=stencil(lVnZchs5DPwavbJ4H8/Z5D9SFWetWq+dcpzr77e5Ko7E5kyr/CZ7gOEAaAAN8BQ+fH/8/O3h5O33t9eXfx5+nb+8PZ7CXyfvz8+PD6/nN/w6hY+n8OHry+vD368vP56/XP7+9rlL9l//vvzsb/h90bMmt67k7Z/LP1oyxf7/n08X+afz8428MyGxvC3H8mE83eSj8flYPpqSZ/kwTtyVz6bQ+72J/li+GetmeWdqFPZaUxaFIg5w3lT/rhOS8ZVNUCa7YlxhH1l1QjU1sUIWJyDKLnDUbBUKwUT3rhOSyWvcBO58MSGzW51SQKRnZNdmklAIblEoJgobQjB+dmtFKJ1QwGM6AYFTn1SMnY2u1lSRPaGaNGOpVNPUJzVT5ziU7cz9/HRsdEnDb/sKyIfZ6OJNC0IBJYBssDJwMXMNy8U0gdZYTbazQjJB2JDseLwpeBmH5EybA5dhg6gaCQk0K6Qq4Z0iF76UTBWRTtm4OXA40ymjywDzpuC0Atw6By4iB1XttsbPNsRikihk8LqbA9djL9ya446CE9DImVM0wq0iDh1qs1uBX1WMM4rxXFuRUlkELreRwUOhZ7lQQLqU2eiwtZh9haXyBT+q7ZECsQBUWwVvKJCX0LiTOsGz0WgxXsShBO7ToDZJgK/EwROGAvpqE4FDnaMEQueWccgDCJtCkDmN0pvpk5Bxyq2Ny30zXshXZ9KMvSK7NNoTlQCdbjUy0UhaHq+jqiebT60mVJZXZA8FZo5AHCVqXx4wnQOw8Zp9eYBu9qcb5G9fHu6ev8fK/t8We61xwj9tq7dXeRXftuDHmShSAPJtriwgbaKVO7vZd3WoqhM4gAAUR6s+ko8MCJX0cCgFOMvKCHkfSL4oQBT+HsiLltkyjztZ+yczMU/DoH35hWbrBIM8FcWoEywN0n4FxL3voQo3+OeRvTQ+WsnsIJ85YYICdGFiB8AKQAMPbklg9f11jH5XeTVSdDyzf5yWp2HTyzltNyHvHNCIrQz+fySfGaBq3Ie844S849BYSF6RJwS4cAIrltzl43vk88DXtaPKAKNDzgCtct3Slg7s7iAO1IxakpPE6ToV3yhkUbMwFdPk0RXEJ9WVB3lZVUAjgmcFNcVWz4zXxbHn2VewDOvO5RT5azyqgC164SXM3bSvQOp7UVrKwg28Xg6AXnLupzFqH/JRKtZ1tJ8jxpto8nAym6HgqbqAZatPimO42hSKpsiRSXi0WiFwhY+as2DyyMtAl/UwlGcvYYqNIh/Ksk3AnNyElzAyEu3CJB7ECZhiya3Jy76GOZn6MhTURiR7JlJQUGvR7LhQpiDdmtro9DcLDpWiaem1qZikFxyFbGiSPabMdQlWqVVWX9LMWIKjFcGGTyydUGQRABCoLuWNEu/vvhrbAMCrpWUH84ylnrRKIfF2rWwL632FMObuTaFJeCODCa0YbKUNjmlbn2zVHrXxoFz1CiUsozvapJpcAsA8B642SYVD4FmweUnFwsIEWpRXIx5enwPX2Y2AN7gOTUegT6pPo0HxCU3Cu7NTzwpqHYcmS9vmG8q7T4mXfVznsAIbaPx8hdT09UscVWVTqHIvCrYTE/tVbZrACV1jBYXvZa/QByFVvZdbv41X7yfccrtT5fv9cotX5fv9cqvYxqZn30HLrWLTi4vx9EZeBoDXzP39IpktX3FAPoj3W+bodyC3LNbhT8Xp7fL9VeLHLilQ5J5jmTo73kRS2iW+WS7WLE9JvXJJ/3N8k2Rg770lvy+PH9cr+a/np6fLjf7tc77Cx78u1//h438=);lineShape=1;labelBorderColor=none;strokeColor=default;strokeWidth=3;fontFamily=Verdana;fontSize=24;fontColor=#000000;fillColor=none;opacity=70;" parent="1" vertex="1">
                    <mxGeometry x="420" y="660" width="311.49" height="210" as="geometry"/>
                </mxCell>
                <mxCell id="12" value="" style="shape=stencil(7VzLkhU3DP2a2bpsS36tSfIfVAFhKgQoIK+/j5wp97SPbp8Lq6Qq7IbGar+kI+lIfR/kxee3Lz++fsjx85dPH355/cfjqy9vH+SHh5wf3799/enxi/31ID8+yIs3Hz69/vnTh9/ev3r698eXc+T869cPv883/Pkkp6GOKZTjX08Pcgq5//Pkp6fx7x7fn8ZLaHUfLyG36/E5jLyPL6El9n6B94+g5Xq8rV+28WLrqdfjSyj7+8We6PX4GlrZx/cQyfge0r4ejaHl6/ED16+2frLflILsB6olVHIBSULsu0CjK0oaBgiMUNgMNfR9DyWGEYlAD1V3gbTmvK1EMeS4C+RQBhHIeKwm0JiABPVLkm8UELJpEyjulCpfEpimCSSieiYwEl4cUw0znjRQQIhxmkBxM0S2Bw29OAE2Q7mxJDpDubEkuoeyFOF8SgQxDAJidvfAVKOG1FGA3nRdkPW1ulRCBwFZNnh5Sm0XqBRWTUD3Y615HcNXzlDtCbPpirhURxhsSS3EXZeachPtQXeL63G94rbvicuVHQJ8Bslri4fAoN7QnA0A2cjU/Zi3SfumR6EgoCmkXVtHpaqhGuJ+SqOFzGao6NJtBrYHs6+xW9zQpb+3fXQOfeApMSAr5gIj3sNgM9ix7gbUG4WZGoOCgIZM7MHMpYJAooFJNWzd99BMfwkImH2NfYZm0EZuutrF7S6rCYXK2jDYazF0YtO1B9kvzuZUFl2ZAKBGXk+uBCJEAoNqq4FKAzCuNJppKZTd4kxZCjlWQ6G624MpC7vpZvfQUKCzJdkeIgoMFoRm3LQJCFHvXhb0njbNDMjsC51iXVZ+O85NLkhU6hQNIwDIDBYSEzCnuJ/SdOzERA22YNMWGSfiHwwYwe3OYJ0YkM2gEEpHvgdZ/uZINxp1ivNYd4uTupTl6uLAsZtPUqLevWLcKkozlC4Ltk4pGYMZ88oCSzLwJDO05mbIK+S6MtG2W5wkakDN5Q/C0wFDjZhQgNm0ARnYtEUfzIAMjMEDWUDETNSgF1TDovHBllTRKVoalZiPc9GMJWqJuSxBE02G3mzTKWhDAWZAhnPRzaBE+Sa4O4FOVKM0RD7bdCGbnsHJDjM58SXJym1PHEthAk5bZ0bBBCLmQCbAoNKQFO7BltQZLeN4kHlx5JQm9O4GlCrNH7SsazoEzGMQ9bZAF5iTdIDnbYGM3E8y7SIWZ7F33vfQ1xtuB/emaRnGs/ebL9D92hoNx8wVQD6TDiLlSkBgx0LTdamYACXORpkAGIMJMEWa7gxura4A7XKG/ZBSo+HYjT00nvXZKYEAjxBNIDmMiUygoL+aKMYurqBHNIHKLq4gik0BdqyKnJ0JFAIZM0oYKJDZpgXTRDtWxtmZANpnp7mAOGC1m2Y0ooUVECyZtrIZ8nAXlzmT40x6miibQdGFdnqq5mvaDsR1QfkVNwsha6GYZAcCZJfQqMTOA+gGofsdQXA4A6SGbkfo8RdUCKUklyB4Gdgxiit0dAfChzv/NBiTifFd4oybOA/bl0e8GA/OIN+hz3D9Np6BlmOfc6J3q8i42/hOxxcYn2nhQ1Hz530z5gxZ2/kG5miQnp9kNz1/DPgLdTMZ+aDMfXF2MV2hgayz3AkNrFTlSotKuZ104/zZfpPTh0x9XsLS38RGOt7rM+WbMfqz8cII7QUeZ/ui+pCcQ2UZo6zbP72fJe6KhHyO1P8qhkHzhKm9AJGQM82DdMUXJ30Q+n7EK6XRrq5C7jk/5ugP6+HMiaAvmvbICk0uiyu8yPmN4yMSajMKJevxqXShzGlcDPo5vyKu3dE+nM+IruZF0dYTYzz1cYEbJUzLIv/X8EihtiF08kruwGj+uIqrmMqthmXCqaBniTRPtTih4+FUFqPm1UJyaCYvvrumDKUkj8VRUPMt1LFLwiJao4GY5QlYdKPFodlCApZlyMYW9C9lwVzgexb8PQu+EBCXaFCSRzAynpkMF8DqKs9kFLvECi+7OyKMN4lJ986DNX1pdDUSGklrRq1QmpSrYupWqUNQV87rPLNqjpfnnLa6KlLibYCTcXb0LivZFMdbJA7CJa+GlnN6SCzNBKDP7TkDvOLlwc3ODhNi/LNgCWoRaYijB1wdM5inutNakXAPkd1DwiDtTuQyN+3QguFRUSxs2U0zEC51bfEcZ7IKTMfAPdmcTGBgH0PimcEsO4HyCXWGVVYkfRZgMyje9FwSK841jElmBMCaNzr2McwokgkMvOmZ8bACo+tdnWwmK8OmFfWeDYicUssuhe000muu39AEWE7Xmksyx6qC3hTo0bEUg266O9Iw896kXpfmnFCD8VCz12nfgyTqTmY3laufs1xqqGtLEN684dumedvaGEg+mA9m5ECKLj3VzHc9MCrRStvQRl/c8SEwaMI/qktRM82w57mCgNIWrtktuF91abTBqg8kLQwMWShm2gfQVzMNWLsgGldOos9upoECjMdqdaH7IVBo82pzLY210ITSgAnSq3pEmFfQB7FDPdrsr+Db93zRhsOG4Yz5yXQH76FdXGk3U3P8S+H2YALQ0lh5I7QJ4MXxnq/m4mg7BnYPLWJO2SJvWRmYy7RMmwBmh6LrsqQtjQ1pNvMxtLGnYAnQfAxrxjBVg8LGbLkiN10T8jHPVn4VYYFHMRxhVPaM4VxfM+v5KoLqfaev2RIIyDhG4x8GuYaS6QCYgOCmTz7mKu2D8MSmoN3cDYOHcbTYfiV9YMfEMlHz/NBQOxIv6nRE416pQWTHLPVE9zCrRLtRtzvfHghmEC1Ro56V0F2ZnlvZrgQQZ+58gJQd48jJrpxdqbjw4u9/8wMk9x3L9w+QbpDX/78PkCri0vwgj3+xBPBdCo3vZzeBi06oiSa3B854p4HobTM0MsMkxDPugS0pVfexgtKOheTav81PMv7nucJ2ujgWnYwb5pBZyo6fjFjOxNifunKFY7xSJHZkkaY7PRSgd5YmMuonY4ey8M7YiLAt/DxdEmonwFoyI2bes0rMq5hAsdyBYMSWWQygn1tjAaTRmu0tNpD3HPlaAztPcT1NfLxzIHfWo1houLNf93n8nfNUZADmt86M2ce08E5/e8HPDGw803/3/ll1pz0RsP5Zdieh17f+fMD98fbH828VvHl89+7ppw7O/4+/bWCPnn4XQX78Gw==);lineShape=1;labelBorderColor=none;strokeColor=default;strokeWidth=3;fontFamily=Verdana;fontSize=24;fontColor=#000000;fillColor=none;opacity=70;" parent="1" vertex="1">
                    <mxGeometry x="281.29238231515524" y="406.4241859525216" width="348.7347172052041" height="190.34836955413812" as="geometry"/>
                </mxCell>
                <mxCell id="13" value="" style="shape=stencil(lVnRUhw5DPyafVXZlm3Zz1zuP1IVcmwdBylCLsnfR87Gw0hmeuFtYdU7stRqSZ4T33y9+/jl9pTC1+enx39vv58/Pd+d+K9TSueHu9un87N+OvGHE998fny6/efp8dvDp8vfXz4Oy/Hpv8f/xy/8uOACxTpAKfy8/CNlyuX3f/6+2N+fH4y9BGufiOXYPlJvxj42SvnYnkmcPVPjY3uhmI19p4bciSTWvpIg+0rV2hcK/dheo/Hn62nPMJzqf3LxpBhBeJKPf6AOfp+FMjv7BPzPiZr//RiAfSPOzj4A+5JpfGfsM/CndG8fqQD61DyP9xL/1IB9n+l/yW8B/kimYu2FJAH7Tjla/wOsl8YU7ANiplABoFIqvsIEHLk16pYSGiMGZ+5KMevSYC1IQufp8ZaECKuya1HZLHOdz3wdoGVpz5AjjFJvsww3QIGJ633KzkaMQBUAYtiYvyEKrAV9RLU+1TCTf3SIbuNaCyUgjgoI7gmdGIVJPPuEqQIyaeZ8PTQqyCWeYZ+AljAgULNnUMZHAGhC7J7QZ5M7LDmrGV1dAqIqWvM2DxqGDFRbEnXrkgY6gpKrQtXKhqZSgEs1ElvyddwIS/U1qoAOMq30ZxulHeNf7w3Z8/sagrvvblcR2Xulx0ACPuaD7CMbUYfW1LrcVSpACLRDNRdZhoKsel1d7nTKAnRSvXZKI3WG+ugMMXoAYocKfLDqp5yvCKBVbw+tOoDopHkoNg9N9RVU6UicnQyvCMd4gj1D09EWcCm1BVChHuvs6IbboT0IUHzRaTNG0qTTYC8egARcxykfJaEOenXsXvH10B08Icrk5gbQHgDYqiO0mzdUcAW5VH3rbXH2gCOXsq0H5VJAvXqpOGVrxmF1Y6VsXeYocbyUKJo3xtqVFgCid10AMmfxI3rH5dAF1UOfo/M+rIjei7Zq4jp+gh8GlBpIvZtvpIN8eL8qy/TQ0RPKjPq+gBA1eMrWW0v0vQAOS1gLMaCGNkWvGgJLdO276hJay9bWPgDvmh6uPEFn5ygegNiqs7PbtAYAVJzOzmuUUH+QOLeeXR4EAapf7pXeCc2JfZbLruISoPc6ukqFbVdboFNv2Tb+1wHFA6omDsiM1pdYlyrDXW5E3eahaJWDKClAHIBnizkCRLctdnyG4pVvEB5wSfPgppkcIJdGR7Mu6caLdmrVaieVKgvoJkqWAX9cbYAzDCLYTGvXgwWkRHBXFdqB0JLCM+oboMCtvSxyHxNeUlRb3ZKyLUZvvL+KYa5erwN4EmEHQFHiTdx3ADRr8FLTeoaAelybUd9FKaBJgGf72F2yRjSRLTNfzDDT+nvepW1cObg9mUHckQ+dYese+3trxO55jbHZ13kzemDPrhgESnf198pq39CG71e4cSLgf5lL6s4eLZXLPesYneC9e5LFHu2gc9HZ2aMFMfo5LOH3AGHup7t4ohU3LP5U2BOCX3sSvlVaLvdSgRfL73+vcs1eP7y8xPl8vr+/vAPaf+9f+ui/Li+M+MMv);lineShape=1;labelBorderColor=none;strokeColor=default;strokeWidth=3;fontFamily=Verdana;fontSize=24;fontColor=#000000;fillColor=none;opacity=70;" parent="1" vertex="1">
                    <mxGeometry x="556.156247466547" y="427.68322666098106" width="106.71959581274427" height="119.18450656080972" as="geometry"/>
                </mxCell>
                <mxCell id="14" value="" style="shape=stencil(nVnbct02DPya84ohAV6f0+Q/MhO7PlPHzjhOm/x9oR5TCkBplfTtWNaKxG2xIC/y7uvDxy93Fw5fX1+e/7r75/rp9eEif1yYr08Pdy/XV/11kfcXeXf//HL358vzt6dPt7+/fFzeXH59fv57+cL3G64LdVlQHH68PWkk4b8nH26Ax+uTBTS2gEqRISBXC0jUEgAwhWgBTK0eA1qnFCwgjE3uAwoVu4J+QgoACIViAdhLtVNpFlDHmvuAQuwABRpdhZJ1a8tUECBSditoKIHRNUxGR4ogcEXjYN1aG3UEaJSTBZSxyX1ApWAjXROMQ8nereqGt4TfB2i2ZgNQq+CWIjW7gm5SkNGBxFbcskkQh9yoWC/pJrkDQCHpFhDHk32AULWRzpq/wEs5EFsSWDYJ0jsVb3SuY819AA8TV4AWLbBB2nDiCtB6ACQgiarN1rw+2QdECjYOi9+Al7iNclkBTBkBss8ldXQCuaQAV6IJ8xIn6nYFjUwE6b0AbOBSGmseAZoNXNIKQUYrwFacaMWBSPPaPlaA0kLGAOsljT3iVgU49hamglbQLmpzSQJFFAcePhkA1npAcYhUrdEa+4IAYXSDFSCQyOLURXVNBoGLzXdR/QQDoxUQbKSjBg6UaMzeaH0CtyQk1mh9ktGWAnVLZDFCtyrLOJvDaHr7TDk4aO2hmMWGA9d2BYst+HbI1MHXNSe7ez2AMgijSFZbsfOp2yoLlMHeNVTZvY7ExUQrq+37XZYS+68jcUTVfx31juYZSPsrSILupRpTBJ7pvq5UfYKoatFZRybomeY9k4btB57xnZ4E1EeelATsqcmXk76OeHZq2ZQQpY3muZnawdc1X71nIqwmx2YCW28YtbYlgcDiK7a01RiwmThqbUtgJK/Yd8QwkuggTI5WwxjRDpLAaQZ9HYSpjtlrex2JnjY01OYZxJF9lOb2Opp6uidshn35N1/XbsG+tpH2j+yn7XzWMb30x/tp09iJ5WDw7NEhe6g7fBpH2C/VPsdm2sHRKLJ0yEkjQK2mg7hNN3UC1GrNc9rGFPuAPgF4DLr7rXDWagmOUzL1Wo0zojYRn3e6yRNAmyRwBHFQSR2tDSciW5JXIyrjK4jDvEIKcA5eAG52wTJeAcFNR2now0OAW6HC+pHsky91SAA6C1VbD3k9P9inapkAEfYl3bGnGIYA/bdrfBmTmE7uLg46aSOtl7uPg87ySGAV9mIyVwxQ4eC2pI4GkS6qg9whTByq7ugwLFi3FoFSqAZ/PqebROeklT1VFiUytIKM6WCdLgI8F6rZt1pdE01HVVloOp+rSHdXP+HVVXDuA5oXOrWP2fvoJFZch1PyRKfJPI1sPNj26DTZeakJ3FKb+kNL8Jy0i2e+5QQbHdJPB0mtwQ7UqxeEXTs9kknda+vOg9oOlM80rJ7dA3SfG2c3Dd0flJ7dZXSfTApANdonMalPkHbQ77nzhc1xR4A0rQC3pJELHtDRlqpn459Cs48oPtaniDyq/lc3lcdE/KtmpynWJ45Nni3PQpema6iT5PgfV2lnAP2x3dzdXx8fbxd/P//f3/Tpo9stobz/Fw==);lineShape=1;labelBorderColor=none;strokeColor=default;strokeWidth=3;fontFamily=Verdana;fontSize=24;fontColor=#000000;fillColor=none;opacity=70;" parent="1" vertex="1">
                    <mxGeometry x="117.33805224324077" y="699.1567492716974" width="145.68691747111734" height="242.98192937280032" as="geometry"/>
                </mxCell>
                <mxCell id="15" value="" style="shape=stencil(lVdLbttQDDyNtsT7f9Zpeo8AcWqjbhw47u/2HVV9qknLUxTwQpY5FoccDp+m+PC+f3rbTcG9X86nz7vvh+fLfoofphAOr/vd+XDB1RQfp/jwcjrvPp1PX1+fl+9vT3PkfPXl9G3+hx8LzgsQ88f9XG4UJ839vvNxiT8eXq/is6Ss4rOXku7H+yjdKUDM4tp9QAjSuwIEZNTvA6IX5xWgSQmEgZNaVLwTRxiXNd8R752kSgBdfNUMkvh4H1C9VF3UWKWSGtUmUVMGqUhqVNAFzaGhqKRtIF10SjVLLpS0ixqAvmTCIdo2lEqVV7tEnVIptKwtS/AWEAigQxmaQ2niSFl7lnhDOhMOvUk2AHAgYvVuFefaOT9GcPsRXbJpdZHOANWKqYfRy21AlKRJdJAg2mjNdg516J4AghSd0lUdtsVRpGrXQB0iA6BRwZLozAaq7TXq4NgIJSmmEY3qFUP6ZyRXAOrAjCYNY1zVVCWQVoODEXgNo5fbVYISzJA2qUSvSMBoAzPHJqJFCdUCWKdRxG4AIE3MEm3quqzVDWO4NxDW+xI1fEitai3BqwqboC5dVwle5YmWtgHkCRk7SHOAbTDSqQ8fWsvaaUrJWZ/BSaASQCy2cRG+QBqHn51OCXs0kSfkam0jRLq0UhsTfHU4yaRK2MtNp4S/CCQlnEWqUWugho+MmxlRJ51wwHnJbDls1khMYD7uGLXmsQG2dxBmWq+g2W2J+HwaI3/lS6ysHiutWUBhC8KaN+KZF2e7HUC5sT5L0rYHB3CMwI1jeFohZ/mWTlVxcwiASbKWubEG1ngwIgeZ/30L+Hc8Lv6+crwcjsfljeX6d/uKglvL6018/AU=);lineShape=1;labelBorderColor=none;strokeColor=default;strokeWidth=3;fontFamily=Verdana;fontSize=24;fontColor=#000000;fillColor=none;opacity=70;" parent="1" vertex="1">
                    <mxGeometry x="184.0162722514351" y="801.809857988872" width="34.514923214060445" height="36.72762952739663" as="geometry"/>
                </mxCell>
                <mxCell id="16" value="" style="shape=stencil(nZbJctswDEC/RlcMQZAgcU7T/8hMnFpT1844Tpe/L1QNVYOS4bQ3WcYT9mWgh7f90+tuiOHtcj593f0Yny/7gT4NMY7H/e48XvRpoMeBHl5O592X8+n9+Dz/fn2aJKenb6fv0xd+zhwHkDJRMfya39QCIn/efJ6Bw3i0QCIDFAbk20AWCGKArBqqAxSo2QCJAIsDMLA1KRaIeBsoAqkagDQMwfUhJgtUYMcHFKjW6ZQhOD5ghFx7p8kBGJK1KAVAui0fAYP1IAM7eQ4QsA9Rjp58svIxA+bb8tRHVL/gydeW0SaPDMGRxwTVOoyq0qlTjRBFCywx2waklfEVwI4G4hWQ3LJLWhS2irC2N9sAQ7Q+aJzJqYpU+k7QQLMHcAviUhcEklwf2A6YqXUcH6j080I/kZwoaWGiLY2U3DxoplM3YLJbGlOaYq8BnWaoQJ1FCORVRi+vQYhO84e++SlC9JvZ9oKOD3HsjxC65kQoTpIZyAYUi2uPNkqyRaEhDo5BOk+LLTv0PdYN0GtQwJnYE7DW4ADaOmKT5g8kFmArv2RlU16ozYZlb0J1coBhnWV/DUqFsto53qKVAtnm+c4qF50W1qQ7x4Lk1rkfPEcUQAtIgOqZRG1xLwC1xGwD2rrWB/UqOECtLYgLoD54qy31tSrSdG4Dq2V7lfzti0cTQf9GxFVgfaO49g10x23ObTV9MLAcQToNfuoYV4H1i+N/ruF7gD78Pb5fxsNhvt2v/++PdX01H/r0+Bs=);lineShape=1;labelBorderColor=none;strokeColor=default;strokeWidth=3;fontFamily=Verdana;fontSize=24;fontColor=#000000;fillColor=none;opacity=70;" parent="1" vertex="1">
                    <mxGeometry x="179.08211311094874" y="770.9875855184489" width="24.588308606081455" height="35.25200220121906" as="geometry"/>
                </mxCell>
                <mxCell id="17" value="" style="shape=stencil(rZbdbtswDIWfxreEREqUdN1171Gg6WIsS4o0+3v70TO0hUp8igG7k21+Ek0ekprk4W3/9LqbOLxdzqfPu+/z82U/yYeJeT7ud+f5YqtJHid5eDmdd5/Op6/H5/X59WmxXFZfTt+WHX6sHCfKdaE4/FzfJGL5/eLjan+Yj1f2kikWZx8TlbINZDugOYALFd0GaiTxHomdEAFQSNQDSgmc0JjUu5QipQQApZo80CgioI0u5UoFA827pI04A6CS+jyURhkBmbI4oNae+vtAoBYcYFtIA3nIxN4l+ysGeTCPl28eKOCEIt2BP4BSA2rVegPYXwG1qkkt+yhxj9t9gEdpFAOAWhfAS0MjNZA4c6n6KOV3AMurT1wSyigPMkpDSlfXVuLEZ9pKtGJppOiB3J28L75Iwf+0NEpY3uqBpCQMC6gMYcXyjiFQ8HHV3PfY7AL+iKJd8Vt9pnhtWOAKqlEeu3cTSuAE65VjyVmJAH1bN2av76s4/CdCbhpHDVDhsVDygAocEaXPg6sSyqAdp9E+WdxAHrhPg6uBguohjGK1ECjY/0Z53CiArAUSX27moYD4xLEBxEwN2Aup9ycGYpBhHUd6hk3VpoB3x+KL5CB9enf70AW1JR8Jgz3Sp4Un+CliVxTgz7/eqd63t8XfC9zLfDis97/r7+OFz16tl0V5/AU=);lineShape=1;labelBorderColor=none;strokeColor=default;strokeWidth=3;fontFamily=Verdana;fontSize=24;fontColor=#000000;fillColor=none;opacity=70;" parent="1" vertex="1">
                    <mxGeometry x="194.09120108249545" y="769.7675053543855" width="26.515228586027206" height="15.19584425691346" as="geometry"/>
                </mxCell>
                <mxCell id="18" value="" style="shape=stencil(lVfLchpBDPwarqoZaTSPs+P8h6uMAxUCLozz+PtoQ5YgLbQrt2V2mxmpWy3NSh7eNk+v6xWnt9Px8HX9Y/t82qzk04p5u9+sj9uTPa3kcSUPL4fj+svx8L5/Pv9+fZq+nJ6+Hb5P//DzjNNOpU4oTr/OKyURy5+Vz2fAbru/BiTK6gFK2gBAqA4HqExt3AdUoVL8DnbIfB9QKrUQg1ACAFXqIYZBBcRQM2l2AC0kCQCUOASdqDIAWAzdA9q8cm+H7rPUlBIgzrKuPks9U0VZasT+SL1Sx9IIOwwTSwHECeXkAZkYpFWUajjSoAEAPCgtYpAKAELDE9cTDcAD2+vAQ5m5vwdgLz5jOgFpMFPyWVILGhDHGmOwGmwAIJk6x3pIIGjp1H1arQYLCHp6nSOAQdCTayxMAKXVctJDiZrgUYkaTc0DOgnypUoaiFMShYDi09qYKhCfOd/wTLdBCgrIgv7r1Re16ly0twFMwx/JCoiB85m5Vw+wEs1IS31R02YLIK0mvuyZ7uZ84EgTQP8HUOZmcOXFGZwoxXorVh+AtkLdC8lMpABtZ0u5P9CYvfx2wIVG2GD+g3u1oz6AS0Q3v28LBhTmZ7JQ7y+5w244WqxNC6mByslpwYE1XMTBsI7vz9SsuQBAa1QWKsrILxY7jA7bYbERwZfOVVi3jbtGhJ0JMZ3bHONF2mNuR7cBQuKN2xzhA62GYhMzKUDdJFYPMPUhD7MhIIgjV0hEaVEbGavJ5pIiEYAEbgU0cgQUNPm0uZldAIoHSnMgz4NRyaiX8DyrXQCDKtqhRKbNNRQPlBJcRmdm7gHU24b5WEY7LIxSGE4N003AM20DoKIs5cjD1I5QP+zRBT66/nx8X7KHf7etl+1ud76sXb+PtzNbOt/s5PE3);lineShape=1;labelBorderColor=none;strokeColor=default;strokeWidth=3;fontFamily=Verdana;fontSize=24;fontColor=#000000;fillColor=none;opacity=70;" parent="1" vertex="1">
                    <mxGeometry x="181.7768084039169" y="743.7262866520498" width="28.48013617093443" height="29.392500627663594" as="geometry"/>
                </mxCell>
            </root>
        </mxGraphModel>
    </diagram>
</mxfile>